<svg width="177" height="96" viewBox="0 0 177 96" fill="none" xmlns="http://www.w3.org/2000/svg">
<g clip-path="url(#clip0_1891_26682)">
<path d="M110.352 68.3748L119.339 53.6994L115.943 1.35902C115.899 0.993559 115.788 0.696591 115.59 0.46818C115.391 0.239769 115.149 0.102717 114.873 0.0341932C114.597 -0.0229096 114.311 -0.011503 114.013 0.091282C113.715 0.194067 113.462 0.411066 113.274 0.742262L104.342 15.4177L107.738 67.7581C107.815 68.5004 108.179 68.9458 108.808 69.1171C109.448 69.277 109.955 69.0372 110.352 68.3748Z" fill="#737171"/>
<path d="M170.792 24.9769L162.631 17.0282C162.311 16.7426 161.947 16.617 161.528 16.6627C161.109 16.7084 160.767 16.8911 160.481 17.2223C159.808 18.1702 159.124 19.0724 158.43 19.9404C157.735 20.8084 157.051 21.6877 156.378 22.59C155.463 23.7434 154.559 24.8969 153.666 26.0732C152.772 27.2495 151.868 28.4259 150.953 29.6136C150.71 29.8992 150.622 30.2189 150.655 30.5729C150.699 30.927 150.854 31.2353 151.129 31.5323L159.29 39.481C159.61 39.7665 159.962 39.9035 160.359 39.8807C160.756 39.8579 161.098 39.6865 161.374 39.3553C162.962 37.2996 164.55 35.244 166.138 33.1883C167.726 31.1326 169.336 29.054 170.957 26.9641C171.155 26.6329 171.233 26.3017 171.2 25.9476C171.155 25.5936 171.023 25.2853 170.781 24.9883L170.792 24.9769Z" fill="#737171"/>
<path d="M90.5201 24.9769L82.3596 17.0282C82.0398 16.7426 81.6759 16.617 81.2569 16.6627C80.8378 16.7084 80.496 16.8911 80.2092 17.2223C79.5366 18.1702 78.8528 19.0724 78.1581 19.9404C77.4633 20.8084 76.7796 21.6877 76.107 22.59C75.2027 23.732 74.3095 24.8741 73.4273 26.039C73.3831 25.9819 73.3611 25.9133 73.317 25.8677L65.1565 17.919C64.8367 17.6335 64.4728 17.5079 64.0538 17.5535C63.6347 17.5992 63.2929 17.7819 63.0061 18.1131C62.3334 19.061 61.6498 19.9633 60.955 20.8312C60.2603 21.6992 59.5765 22.5786 58.9039 23.4808C57.9886 24.6343 57.0843 25.7877 56.1911 26.9641C55.2978 28.1404 54.3936 29.3167 53.4783 30.5044C53.2357 30.7899 53.1474 31.1097 53.1805 31.4638C53.2246 31.8178 53.379 32.1262 53.6547 32.4231L61.8152 40.3718C62.135 40.6573 62.4879 40.7944 62.8848 40.7716C63.2818 40.7487 63.6237 40.5774 63.8994 40.2462C65.4873 38.1905 67.0753 36.1348 68.6633 34.079C69.347 33.1882 70.0528 32.286 70.7475 31.3952C70.7916 31.4523 70.8137 31.498 70.8578 31.5552L79.0182 39.5038C79.338 39.7893 79.6909 39.9264 80.0879 39.9036C80.4849 39.8807 80.8268 39.7094 81.1025 39.3782C82.6905 37.3225 84.2784 35.2668 85.8664 33.2111C87.4544 31.1554 89.0644 29.0769 90.6855 26.9869C90.884 26.6557 90.9612 26.3245 90.9281 25.9705C90.884 25.6164 90.7516 25.3081 90.509 25.0111L90.5201 24.9769Z" fill="#737171"/>
<path d="M161.893 49.8163C160.658 49.8163 159.853 50.3759 159.456 51.4837V51.4266C158.618 53.3567 157.559 55.1383 156.269 56.76C154.978 58.3818 153.501 59.7864 151.836 60.9856C150.005 62.219 148.064 63.3611 146.002 64.4118C143.94 65.4625 141.789 66.4447 139.573 67.3697C137.345 68.2948 135.074 69.1627 132.758 69.985C130.431 70.8073 128.126 71.5839 125.821 72.3262H125.877C122.259 73.5139 119.271 74.5761 116.889 75.5012C114.507 76.4262 112.721 77.2371 111.53 77.9337C109.302 79.2471 108.199 80.5833 108.199 81.9424C108.199 82.6847 108.42 83.2786 108.85 83.7354C109.92 84.8089 112.302 85.5398 115.996 85.951C119.37 86.3164 123.395 86.5677 128.082 86.6933H129.218C131.953 86.6933 134.577 86.4535 137.081 85.9852C139.584 85.517 141.8 84.866 143.741 84.0437C145.77 83.1415 147.689 81.9766 149.52 80.5604C151.35 79.1443 152.949 77.5911 154.339 75.9008C156.28 73.4797 158.11 69.985 159.82 65.4168C160.735 63.0756 161.496 60.8029 162.113 58.6102C162.731 56.4174 163.249 54.3046 163.69 52.2946V51.8035C163.613 51.2325 163.437 50.7756 163.15 50.4444C162.874 50.1133 162.455 49.9077 161.904 49.8278L161.893 49.8163Z" fill="#737171"/>
<path d="M90.4341 41.7535C90.401 41.0683 90.1253 40.6 89.585 40.3716C89.0446 40.1432 88.5373 40.2574 88.0521 40.7142L75.8776 51.6437C75.7563 51.7808 75.635 51.9749 75.5137 52.2147C75.3924 52.4546 75.3483 52.6715 75.3814 52.8429C75.4696 54.0991 75.5358 55.4353 75.5799 56.8515C75.624 58.2676 75.6791 59.7295 75.7453 61.237C75.7784 62.3905 75.7673 63.4412 75.7012 64.3891C75.646 65.3256 75.5468 66.1478 75.4145 66.833C75.4145 66.833 68.3347 67.9865 57.3953 69.5055C58.3657 69.4598 59.3362 69.4255 60.2956 69.357C61.674 69.2542 63.0414 69.1057 64.3758 68.923C63.0304 69.1057 61.674 69.2542 60.2956 69.357C59.3362 69.4369 58.3657 69.4712 57.3953 69.5055C51.0103 70.3849 43.291 71.3899 34.91 72.3606L34.4468 62.813C34.3586 61.1 32.517 60.1178 31.1165 61.0542L11.8512 73.9595L6.08376 77.8197C4.69427 78.7562 4.79352 80.9032 6.27122 81.6798L15.1154 86.3737L32.8147 95.7499C34.2924 96.5379 36.0348 95.3616 35.9466 93.6486L35.6488 87.6185L35.5937 86.4079C42.5411 86.0653 49.1356 85.5171 54.2414 84.6491C54.3076 84.6377 54.3738 84.6263 54.4399 84.6149C58.0129 84.0781 61.5307 83.3015 64.9713 82.2508C73.1538 79.6583 79.208 76.0038 83.1448 71.2529C84.8982 69.0601 86.3759 66.8902 87.5559 64.7546C88.7469 62.6189 89.6291 60.4375 90.1915 58.2105C90.809 55.8236 91.0406 53.471 90.9083 51.1298L90.4341 41.7421V41.7535Z" fill="#737171"/>
</g>
<defs>
<clipPath id="clip0_1891_26682">
<rect width="176.308" height="96" fill="white"/>
</clipPath>
</defs>
</svg>
