<svg width="32" height="16" viewBox="0 0 32 16" fill="none" xmlns="http://www.w3.org/2000/svg">
<path d="M18.1191 4.18457L11.0391 5.16797C10.6972 5.21594 10.5773 5.31202 10.5771 5.55176V5.73242L18.7354 4.5918C19.7784 4.44796 20.668 4.92866 20.668 5.68457V7.40039L22.7881 7.10059V7.33887L30.2725 6.28418C30.4264 6.26018 30.5469 6.16395 30.5469 6.04395C30.5467 5.90008 30.3413 5.78053 30.1191 5.81641L23.8252 6.7041V4.77246L28.8701 4.06445C29.9988 3.90846 31.0253 4.48412 31.0254 5.28809V5.46777C31.0254 5.85175 31.4699 6.12789 32 6.04395V8.3125L22.2686 9.67969V9.44141L20.0859 9.75195C19.4533 9.83587 18.8723 9.5122 18.8721 9.06836V8.93652L8.94434 10.3271V10.3682L6.80664 10.6924C6.00304 10.8123 5.3362 10.4763 5.33594 9.85254V9.68457L1.28223 10.3086C0.82073 10.3807 0.496094 10.6563 0.496094 10.9922V12.8164L1.23145 14.6279H0V8.7959C0.000183102 8.47202 0.325477 8.19628 0.787109 8.1123L1.91504 7.91992V5.64062L3.88184 5.35254C5.74599 5.07654 7.49121 6.0603 7.49121 7.4043V8.33984L8.42188 8.18652V8.13184L20.1719 6.48828V6.2959C20.1717 6.12802 19.9488 6.00796 19.7266 6.04395L10.0986 7.3877V4.84375C10.0989 3.8599 11.0563 2.98397 12.4414 2.79199L18.1191 2V4.18457ZM2.39453 7.34375V7.83594L6.80664 7.18848V6.68457L2.39453 7.34375Z" fill="#231F1F"/>
</svg>
