<?xml version="1.0" encoding="utf-8"?>
<!-- Generator: Adobe Illustrator 23.0.2, SVG Export Plug-In . SVG Version: 6.00 Build 0)  -->
<svg version="1.1" id="Layer_1" xmlns="http://www.w3.org/2000/svg" xmlns:xlink="http://www.w3.org/1999/xlink" x="0px" y="0px"
	 viewBox="0 0 500 500" style="enable-background:new 0 0 500 500;" xml:space="preserve">
<style type="text/css">
	.st0{fill:#EC1C24;}
</style>
<g>
	<path class="st0" d="M472.7,190.1l-22-20.7c-0.9-0.7-1.8-1.1-3-1c-1.1,0.1-2.1,0.6-2.8,1.4c-1.8,2.5-3.7,4.8-5.5,7.1
		c-1.9,2.2-3.7,4.5-5.5,6.9c-2.5,3-4.9,6-7.3,9.1c-2.4,3-4.8,6.1-7.3,9.2c-0.6,0.7-0.9,1.6-0.8,2.5c0.1,0.9,0.5,1.7,1.3,2.5l22,20.7
		c0.9,0.7,1.8,1.1,2.9,1c1.1-0.1,2-0.5,2.7-1.4c4.3-5.3,8.6-10.7,12.8-16c4.3-5.3,8.6-10.7,13-16.2c0.5-0.9,0.7-1.7,0.6-2.6
		C473.7,191.7,473.3,190.8,472.7,190.1z"/>
	<path class="st0" d="M256.4,190.1l-22-20.7c-0.9-0.7-1.8-1.1-3-1c-1.1,0.1-2.1,0.6-2.8,1.4c-1.8,2.5-3.7,4.8-5.5,7.1
		c-1.9,2.2-3.7,4.5-5.5,6.9c-2.4,3-4.8,5.9-7.2,9c-0.1-0.2-0.2-0.3-0.3-0.5l-22-20.7c-0.9-0.7-1.8-1.1-3-1c-1.1,0.1-2.1,0.6-2.8,1.4
		c-1.8,2.5-3.7,4.8-5.5,7.1c-1.9,2.2-3.7,4.5-5.5,6.9c-2.5,3-4.9,6-7.3,9.1c-2.4,3-4.8,6.1-7.3,9.2c-0.6,0.7-0.9,1.6-0.8,2.5
		c0.1,0.9,0.5,1.7,1.3,2.5l22,20.7c0.9,0.7,1.8,1.1,2.9,1c1.1-0.1,2-0.5,2.7-1.4c4.3-5.3,8.6-10.7,12.8-16c1.8-2.3,3.7-4.7,5.6-7
		c0.1,0.1,0.2,0.3,0.3,0.4l22,20.7c0.9,0.7,1.8,1.1,2.9,1c1.1-0.1,2-0.5,2.7-1.4c4.3-5.3,8.6-10.7,12.8-16c4.3-5.3,8.6-10.7,13-16.2
		c0.5-0.9,0.7-1.7,0.6-2.6C257.4,191.7,257,190.8,256.4,190.1z"/>
	<g>
		<path d="M309.8,303l24.2-38.2l-9.1-136.2c-0.1-1-0.4-1.7-1-2.3c-0.5-0.6-1.2-1-1.9-1.1c-0.7-0.2-1.5-0.1-2.3,0.2
			c-0.8,0.3-1.5,0.8-2,1.7l-24.1,38.2l9.1,136.2c0.2,1.9,1.2,3.1,2.9,3.5C307.4,305.4,308.7,304.7,309.8,303z"/>
		<path d="M448.7,254.7c-3.3,0-5.5,1.4-6.6,4.3v-0.2c-2.2,5-5.1,9.7-8.6,13.9c-3.5,4.2-7.5,7.9-12,11c-4.9,3.2-10.2,6.2-15.7,8.9
			c-5.6,2.7-11.3,5.3-17.3,7.7c-6,2.4-12.1,4.7-18.4,6.8c-6.3,2.1-12.5,4.2-18.7,6.1h0.2c-9.7,3.1-17.8,5.9-24.2,8.3
			c-6.4,2.4-11.2,4.5-14.4,6.3c-6,3.4-9,6.9-9,10.4c0,1.9,0.6,3.5,1.8,4.7c2.9,2.8,9.3,4.7,19.2,5.8c9.1,1,19.9,1.6,32.6,1.9h3
			c7.4,0,14.4-0.6,21.2-1.8c6.7-1.2,12.7-2.9,18-5.1c5.5-2.4,10.6-5.4,15.6-9.1c4.9-3.7,9.2-7.7,13-12.1
			c5.2-6.3,10.2-15.4,14.8-27.3c2.5-6.1,4.5-12,6.2-17.7c1.7-5.7,3.1-11.2,4.3-16.4v-1.3c-0.2-1.5-0.7-2.7-1.4-3.5
			C451.4,255.5,450.2,254.9,448.7,254.7z"/>
		<path d="M256.1,233.7c-0.1-1.8-0.8-3-2.3-3.6c-1.4-0.6-2.8-0.3-4.1,0.9l-32.8,28.4c-0.3,0.4-0.6,0.9-1,1.5
			c-0.3,0.6-0.5,1.2-0.4,1.6c0.2,3.3,0.4,6.8,0.5,10.4c0.1,3.7,0.3,7.5,0.4,11.4c0.1,3,0,5.7-0.1,8.2c-0.2,2.4-0.4,4.6-0.8,6.3
			c0,0-19.1,3-48.6,7c2.6-0.1,5.2-0.2,7.8-0.4c3.7-0.3,7.4-0.7,11-1.1c-3.6,0.5-7.3,0.9-11,1.1c-2.6,0.2-5.2,0.3-7.8,0.4
			c-17.2,2.3-38,4.9-60.6,7.4l-1.3-24.9c-0.2-4.5-5.2-7-9-4.6l-51.9,33.6l-15.5,10.1c-3.8,2.4-3.5,8,0.5,10.1l23.8,12.2l47.7,24.4
			c4,2,8.7-1,8.5-5.5l-0.8-15.7l-0.2-3.1c18.7-0.9,36.5-2.3,50.3-4.6c0.2,0,0.4-0.1,0.5-0.1c9.6-1.4,19.1-3.4,28.4-6.1
			c22.1-6.7,38.4-16.3,49-28.6c4.7-5.7,8.7-11.3,11.9-16.9c3.2-5.6,5.6-11.2,7.1-17c1.7-6.2,2.3-12.3,1.9-18.4L256.1,233.7z"/>
	</g>
</g>
</svg>
