<svg width="24" height="24" viewBox="0 0 18 16" fill="none" xmlns="http://www.w3.org/2000/svg">
<path d="M18 1.995C18 2.26022 17.8946 2.51457 17.7071 2.70211C17.5196 2.88964 17.2652 2.995 17 2.995H7C6.73478 2.995 6.48043 2.88964 6.29289 2.70211C6.10536 2.51457 6 2.26022 6 1.995C6 1.72978 6.10536 1.47543 6.29289 1.28789C6.48043 1.10036 6.73478 0.995 7 0.995H17C17.2652 0.995 17.5196 1.10036 17.7071 1.28789C17.8946 1.47543 18 1.72978 18 1.995ZM18 7.995C18 8.26022 17.8946 8.51457 17.7071 8.70211C17.5196 8.88964 17.2652 8.995 17 8.995H7C6.73478 8.995 6.48043 8.88964 6.29289 8.70211C6.10536 8.51457 6 8.26022 6 7.995C6 7.72978 6.10536 7.47543 6.29289 7.28789C6.48043 7.10036 6.73478 6.995 7 6.995H17C17.2652 6.995 17.5196 7.10036 17.7071 7.28789C17.8946 7.47543 18 7.72978 18 7.995ZM18 13.995C18 14.2602 17.8946 14.5146 17.7071 14.7021C17.5196 14.8896 17.2652 14.995 17 14.995H7C6.73478 14.995 6.48043 14.8896 6.29289 14.7021C6.10536 14.5146 6 14.2602 6 13.995C6 13.7298 6.10536 13.4754 6.29289 13.2879C6.48043 13.1004 6.73478 12.995 7 12.995H17C17.2652 12.995 17.5196 13.1004 17.7071 13.2879C17.8946 13.4754 18 13.7298 18 13.995ZM4 1.99V2.01C4 3.109 3.105 4 2 4C0.895 4 0 3.109 0 2.01V1.99C0 0.891 0.895 0 2 0C3.105 0 4 0.891 4 1.99ZM4 7.99V8.01C4 9.109 3.105 10 2 10C0.895 10 0 9.109 0 8.01V7.99C0 6.891 0.895 6 2 6C3.105 6 4 6.891 4 7.99ZM4 13.99V14.01C4 15.109 3.105 16 2 16C0.895 16 0 15.109 0 14.01V13.99C0 12.891 0.895 12 2 12C3.105 12 4 12.891 4 13.99Z" fill="currentColor"/>
</svg>
